#!OML:ASF F:\twosubjects\two\Thursday\Session 1\Rory.ASF
:FULLY-SPECIFIED
:DEGREES
221
root 10.2061 18.5046 -2.23079 5.40527 -4.78731 3.36229
lowerback -0.229542 0.0540525 -6.25611
upperback 2.12303 0.223882 -3.16135
thorax 2.31072 0.0237677 0.251168
lowerneck -6.03821 -0.574856 -1.69592
upperneck 38.8079 -0.484832 -0.218575
head 14.3307 -0.536028 0.136636
rclavicle 8.74653e-015 2.94201e-014
rhumerus 27.1441 7.97418 -87.0026
rradius 57.7206
rwrist -9.83965
rhand -59.6833 35.936
rfingers 7.12502
rthumb -31.8503 8.70019
lclavicle 8.74653e-015 2.94201e-014
lhumerus 29.5021 -8.96227 79.1662
lradius 52.2127
lwrist 4.20555
lhand -33.9645 60.9851
lfingers 7.12502
lthumb -7.1453 1349.16
rfemur -16.9574 11.2071 6.77589
rtibia 22.6209
rfoot -10.34 -16.6838
rtoes -6.5691
lfemur -9.765 5.45759 -27.1193
ltibia 18.7628
lfoot -14.4636 -0.723084
ltoes 13.3707
222
root 10.1944 18.5058 -2.23479 5.52932 -4.80871 2.97733
lowerback -0.204723 0.160362 -5.83193
upperback 1.95998 0.345243 -3.04325
thorax 2.12135 0.0975631 0.14072
lowerneck -6.16878 -0.643957 -1.81925
upperneck 38.8347 -0.600274 -0.0922009
head 14.3754 -0.585652 0.195418
rclavicle 2.38542e-015 -2.3059e-014
rhumerus 27.1478 7.98198 -86.8397
rradius 57.381
rwrist -9.89729
rhand -59.4865 34.9936
rfingers 7.12502
rthumb -31.6629 7.72059
lclavicle 2.38542e-015 -2.3059e-014
lhumerus 29.3572 -9.02071 79.3405
lradius 52.3463
lwrist 6.05255
lhand -33.6668 60.5883
lfingers 7.12502
lthumb -6.85794 1349.54
rfemur -17.06 11.5552 7.18587
rtibia 22.5533
rfoot -10.3469 -16.9434
rtoes -5.65745
lfemur -9.97063 5.46111 -26.664
ltibia 18.8956
lfoot -14.4285 -0.642419
ltoes 13.2876
223
root 10.1901 18.5068 -2.24084 5.6613 -4.98154 2.72002
lowerback -0.289731 0.354633 -5.45583
upperback 1.83566 0.597865 -2.99557
thorax 2.03095 0.233094 -0.0135032
lowerneck -6.20917 -0.781999 -1.84386
upperneck 38.7492 -0.801025 -0.072614
head 14.346 -0.66978 0.181792
rclavicle 2.5842e-015 5.56597e-015
rhumerus 27.2617 7.84489 -86.5906
rradius 56.9504
rwrist -9.89334
rhand -59.9931 38.7402
rfingers 7.12502
rthumb -32.1452 11.5635
lclavicle 2.5842e-015 5.56597e-015
lhumerus 29.1584 -8.53444 80.0691
lradius 52.1977
lwrist 4.23655
lhand -32.9536 58.7563
lfingers 7.12502
lthumb -6.16941 1528.65
rfemur -17.2948 11.225 7.47835
rtibia 22.5426
rfoot -10.1724 -16.502
rtoes -5.26974
lfemur -10.1577 5.50711 -26.4071
ltibia 18.933
lfoot -14.402 -0.415209
ltoes 12.7898
224
root 10.1723 18.5035 -2.22704 5.30837 -4.64574 3.14423
lowerback -0.20094 0.385705 -5.93305
upperback 1.9184 0.644144 -3.05346
thorax 2.06212 0.246816 0.192156
lowerneck -6.15234 -0.911197 -1.72906
upperneck 38.6075 -0.933344 -0.288958
head 14.2646 -0.733877 0.0562268
rclavicle -4.37326e-015 -2.14687e-014
rhumerus 27.3254 7.64973 -86.425
rradius 56.5981
rwrist -9.91781
rhand -59.541 37.9877
rfingers 7.12502
rthumb -31.7148 10.725
lclavicle -4.37326e-015 -2.14687e-014
lhumerus 28.933 -8.5507 80.3778
lradius 52.2377
lwrist 3.79323
lhand -32.7176 58.2789
lfingers 7.12502
lthumb -5.94155 1528.18
rfemur -16.7439 10.8279 7.22161
rtibia 22.5529
rfoot -10.2959 -16.3851
rtoes -4.6762
lfemur -9.73709 5.58167 -26.7425
ltibia 18.9434
lfoot -14.4676 -0.836565
ltoes 12.2463
225
root 10.16 18.5014 -2.21067 5.16796 -4.33249 3.5242
lowerback -0.294518 0.305302 -6.39675
upperback 1.93335 0.553109 -3.06575
thorax 2.13252 0.191675 0.435434
lowerneck -6.07837 -0.880105 -1.7593
upperneck 38.3058 -0.88051 -0.287653
head 14.104 -0.711859 0.0714876
rclavicle 4.87022e-015 3.18055e-014
rhumerus 27.2232 7.78096 -86.4957
rradius 56.4219
rwrist -9.88778
rhand -57.9681 32.5461
rfingers 7.12502
rthumb -30.2154 4.99809
lclavicle 4.87022e-015 3.18055e-014
lhumerus 28.6874 -8.52953 80.3237
lradius 52.3135
lwrist 4.15974
lhand -32.751 58.5325
lfingers 7.12502
lthumb -5.97377 1528.43
rfemur -16.4692 10.6499 6.89715
rtibia 22.6144
rfoot -10.4023 -16.4461
rtoes -4.35558
lfemur -9.4718 5.08201 -27.0814
ltibia 18.8556
lfoot -14.4318 -0.670106
ltoes 11.7789
